. 
  
http://www.torrenting.com/        :     Greatest Movie Tracker on The Net!!!
 
http://www.Torrenting.com          :     Once & For all ;)


               www . Torrenting . Com 

(((((((((((((= Enjoy No RAR releases =))))))))))))))))))))


...................................NFO:....................................

.[img]http://img710.imageshack.us/img710/3545/l15472306bd18d7b.jpg[/img]

SAMURAi Presents to you:
Judy.Moody.And.The.Bummer.Summer.2011.BRRip.XviD.AC3-SAMURAi


Source: Bluray
Video: 720x384 @bitrate 1689 @2pass
Audio: English DTS to AC3 5.1 @448
Sample: yes, included  
http://www.imdb.com/title/tt1547230/


General
Complete name                    : Judy.Moody.And.The.Not.Bummer.Summer.2011.BRRip.XviD.AC3-SAMURAi.avi
Format                           : AVI
Format/Info                      : Audio Video Interleave
File size                        : 1.37 GiB
Duration                         : 1h 31mn
Overall bit rate                 : 2 147 Kbps
Writing application              : Nandub v1.0rc2
Writing library                  : Nandub build 1852/release

Video
ID                               : 0
Format                           : MPEG-4 Visual
Format profile                   : Advanced Simple@L5
Format settings, BVOP            : 2
Format settings, QPel            : No
Format settings, GMC             : No warppoints
Format settings, Matrix          : Default (H.263)
Muxing mode                      : Packed bitstream
Codec ID                         : XVID
Codec ID/Hint                    : XviD
Duration                         : 1h 31mn
Bit rate                         : 1 689 Kbps
Width                            : 720 pixels
Height                           : 384 pixels
Display aspect ratio             : 1.875
Frame rate                       : 23.976 fps
Color space                      : YUV
Chroma subsampling               : 4:2:0
Bit depth                        : 8 bits
Scan type                        : Progressive
Compression mode                 : Lossy
Bits/(Pixel*Frame)               : 0.255
Stream size                      : 1.08 GiB (79%)
Writing library                  : XviD 64

Audio
ID                               : 1
Format                           : AC-3
Format/Info                      : Audio Coding 3
Mode extension                   : CM (complete main)
Codec ID                         : 2000
Duration                         : 1h 31mn
Bit rate mode                    : Constant
Bit rate                         : 448 Kbps
Channel(s)                       : 6 channels
Channel positions                : Front: L C R, Side: L R, LFE
Sampling rate                    : 48.0 KHz
Bit depth                        : 16 bits
Compression mode                 : Lossy
Stream size                      : 293 MiB (21%)
Alignment                        : Split accross interleaves
Interleave, duration             : 42 ms (1.00 video frame)
Interleave, preload duration     : 500 ms






Plot
Third grader Judy Moody sets out to have the most thrilling summer of her life.



Screenshots
[img]http://img849.imageshack.us/img849/1464/vlcsnap2011100116h30m57.png[/img]
[img]http://img847.imageshack.us/img847/8614/vlcsnap2011100116h31m10.png[/img]
[img]http://img651.imageshack.us/img651/4900/vlcsnap2011100116h31m20.png[/img]
[img]http://img190.imageshack.us/img190/8492/vlcsnap2011100116h32m39.png[/img]

Greetz:
Cm8, Santi, Rx, Noir, Ember, NPW, Unknown, VIP3R, SiC, Flojo, and other
p2p groups come and past!